<svg xmlns="http://www.w3.org/2000/svg" viewBox="0 0 32 31"><path fill="#95e1d3" d="M30.74 9.5a15.72 15.72 0 0 0-8.24-8.24 5.87 5.87 0 0 1 8.24 8.24zM30.5 16c0 3.85-1.51 7.34-3.96 9.94l2.03 2.03a1.48 1.48 0 1 1-2.1 2.1l-2.18-2.18a14.43 14.43 0 0 1-16.57 0l-2.16 2.17A1.5 1.5 0 0 1 3 29c0-.41.17-.79.44-1.06l2.01-2.01A14.5 14.5 0 1 1 30.5 16zM16 4.5a11.5 11.5 0 1 0 0 23 11.5 11.5 0 0 0 0-23zm6 13h-6a1.5 1.5 0 0 1-1.5-1.5V8a1.5 1.5 0 0 1 3 0v6.5H22a1.5 1.5 0 0 1 0 3zM1.29 9.7A6 6 0 0 1 9.7 1.29 16.06 16.06 0 0 0 1.29 9.7z"/></svg>