<svg xmlns="http://www.w3.org/2000/svg" viewBox="0 0 32 32"><path fill="#95e1d3" d="M31.07 25.89l-14.48 5.99a1.49 1.49 0 0 1-1.18 0l-14.47-6A1.5 1.5 0 0 1 0 24.5v-23A1.5 1.5 0 0 1 2.07.11l.02.01L16 5.88 29.91.12h.01A1.5 1.5 0 0 1 32 1.5v23a1.5 1.5 0 0 1-.93 1.39zM14.5 8.5L3 3.74V23.5l11.5 4.76V8.5zM29 3.74L17.5 8.5v19.76L29 23.5V3.74zm-9.12 6.9l5.5-2.5a1.5 1.5 0 0 1 1.24 2.73l-5.5 2.5a1.5 1.5 0 0 1-1.24-2.73zm0 5.5l5.5-2.5a1.5 1.5 0 0 1 1.24 2.73l-5.5 2.5a1.5 1.5 0 1 1-1.24-2.74zm0 5.5l5.5-2.5a1.5 1.5 0 0 1 1.24 2.73l-5.5 2.5a1.5 1.5 0 0 1-1.24-2.73zM6 8c.22 0 .43.05.62.13l5.5 2.5a1.5 1.5 0 0 1-1.24 2.73l-5.5-2.5A1.5 1.5 0 0 1 6 8zm0 5.5c.22 0 .43.05.62.13l5.5 2.5a1.5 1.5 0 0 1-1.24 2.73l-5.5-2.5A1.5 1.5 0 0 1 6 13.5zM6 19c.22 0 .43.05.62.13l5.5 2.5a1.5 1.5 0 0 1-1.24 2.73l-5.5-2.5A1.5 1.5 0 0 1 6 19z"/></svg>