<svg xmlns="http://www.w3.org/2000/svg" viewBox="0 0 21 26"><path d="M9.05 16.85l-.64 2.56c-.21.85-.4 1.7-.71 2.47a12.65 12.65 0 0 1-2.05 3.53c-.57.66-.45.4-.62.36-.14-.03-.15-.16-.17-.34-.14-1.02-.05-2.2 0-3.34.06-1.3.34-2.4.6-3.48l1.43-6.16c.03-.14.12-.36.09-.44a6.4 6.4 0 0 1-.43-1.7c-.07-.7-.02-1.35.14-1.95.27-1.06.91-2 1.9-2.34a2.18 2.18 0 0 1 1.73.14c.43.25.73.66.86 1.24.15.62.04 1.35-.08 1.9-.26 1.21-.61 2.13-.93 3.3-.16.59-.34 1.19-.2 1.81.14.58.44.98.85 1.28.43.31.94.48 1.63.46 1.23-.05 2.08-.83 2.65-1.57a9.27 9.27 0 0 0 1.68-4.69c.06-.61.11-1.32.07-2.01a5.48 5.48 0 0 0-1.13-3.12 5.28 5.28 0 0 0-2.51-1.71 8.34 8.34 0 0 0-3.75-.23 6.64 6.64 0 0 0-4.92 3.53c-.5.95-.83 2.05-.83 3.4 0 1.06.26 1.87.68 2.5.13.21.32.38.45.6.19.33-.02.82-.12 1.17-.1.43-.12 1.01-.61 1.02-.2 0-.47-.14-.64-.24-1.3-.72-2.1-2.03-2.42-3.74a8.92 8.92 0 0 1 0-3.23 9.2 9.2 0 0 1 4.4-6.15A10.46 10.46 0 0 1 9.34.34c.5-.08 1.03-.1 1.6-.14 1.67-.07 3.19.3 4.33.81a8.84 8.84 0 0 1 2.98 2.15 8.1 8.1 0 0 1 1.83 3.31c.2.7.4 1.43.4 2.29 0 .86-.18 1.61-.3 2.37-.48 2.82-1.82 5.14-3.84 6.45a6.64 6.64 0 0 1-4 1.1 4.59 4.59 0 0 1-1.98-.58c-.54-.3-1-.68-1.32-1.25z"/></svg>