<svg viewBox="0 0 26 22"><path d="M17.51.6a5.4 5.4 0 0 1 4.15 1.65 8.48 8.48 0 0 0 2.7-.9L25 .97a5.26 5.26 0 0 1-1.7 2.47c-.18.14-.36.32-.58.4v.02c1.14-.01 2.08-.52 2.97-.8a8.5 8.5 0 0 1-1.78 2.05l-.82.65c.01 1.21-.02 2.36-.24 3.38-1.32 5.9-4.8 9.9-10.3 11.6-1.97.62-5.16.88-7.43.32a19.1 19.1 0 0 1-3.08-1.01c-.53-.23-1.02-.48-1.49-.77L.1 19c.51.01 1.1.15 1.68.06.51-.08 1.02-.06 1.5-.16 1.19-.26 2.24-.6 3.15-1.14.44-.26 1.1-.56 1.42-.93a5.28 5.28 0 0 1-4.9-3.64c.52.05 2 .19 2.35-.1a3.85 3.85 0 0 1-1.71-.7A5.05 5.05 0 0 1 1.1 7.9a5.8 5.8 0 0 0 1.64.56c.17.05.52.15.72.07h-.03c-.26-.3-.7-.5-.96-.84A5.37 5.37 0 0 1 1.3 2.93c.14-.51.34-.96.57-1.37l.02.01c.1.21.33.37.48.55.45.56 1 1.05 1.56 1.5a15.46 15.46 0 0 0 6.42 3.1c.7.17 1.52.3 2.36.3-.24-.68-.16-1.8.02-2.46A5.18 5.18 0 0 1 16.87.68l.64-.08z"/></svg>